<?xml version="1.0" standalone="no"?>
<!DOCTYPE svg PUBLIC "-//W3C//DTD SVG 20010904//EN"
 "http://www.w3.org/TR/2001/REC-SVG-20010904/DTD/svg10.dtd">
<svg version="1.0" xmlns="http://www.w3.org/2000/svg"
 width="200.000000pt" height="259.000000pt" viewBox="0 0 200.000000 259.000000"
 preserveAspectRatio="xMidYMid meet">

<g transform="translate(0.000000,259.000000) scale(0.100000,-0.100000)"
fill="#000000" stroke="none">
<path d="M0 1590 l0 -1000 1000 0 1000 0 0 1000 0 1000 -1000 0 -1000 0 0
-1000z m1598 738 c23 -26 42 -69 42 -99 0 -33 -49 -89 -77 -89 -13 0 -22 4
-18 10 7 11 -249 17 -470 10 -137 -5 -149 -6 -80 -11 77 -5 75 -5 -37 -7 -111
-2 -118 -1 -132 20 -29 41 -10 144 31 176 13 9 103 12 368 12 l352 0 21 -22z
m-930 -51 l22 -23 -2 -670 -3 -669 -25 3 c-14 2 -42 6 -62 9 -25 3 -38 1 -38
-6 0 -6 -7 -11 -16 -11 -8 0 -13 4 -10 9 3 5 0 9 -7 8 -51 -2 -47 -51 -47 646
0 714 -4 668 68 707 51 26 93 25 120 -3z m798 -448 c51 -31 77 -73 70 -112 -9
-46 -40 -84 -58 -70 -9 8 -74 10 -213 6 -238 -6 -203 -6 -297 0 -43 2 -78 0
-78 -5 0 -4 -8 -8 -19 -8 -12 0 -25 13 -35 34 -29 61 -30 91 -5 135 l23 41
289 0 c275 0 291 -1 323 -21z m-838 -926 c-10 -2 -28 -2 -40 0 -13 2 -5 4 17
4 22 1 32 -1 23 -4z"/>
<path d="M868 2153 c6 -2 18 -2 25 0 6 3 1 5 -13 5 -14 0 -19 -2 -12 -5z"/>
</g>
</svg>
