<?xml version="1.0" standalone="no"?>
<!DOCTYPE svg PUBLIC "-//W3C//DTD SVG 20010904//EN"
 "http://www.w3.org/TR/2001/REC-SVG-20010904/DTD/svg10.dtd">
<svg version="1.0" xmlns="http://www.w3.org/2000/svg"
 width="1250.000000pt" height="634.000000pt" viewBox="0 0 1250.000000 634.000000"
 preserveAspectRatio="xMidYMid meet">

<g transform="translate(0.000000,634.000000) scale(0.100000,-0.100000)"
fill="#000000" stroke="none">
<path d="M6915 5486 c-33 -8 -94 -27 -135 -43 -436 -170 -617 -701 -378 -1108
53 -90 183 -220 273 -273 231 -135 510 -143 745 -21 151 78 267 195 339 343
60 122 75 190 75 341 1 155 -13 218 -81 355 -40 81 -60 109 -142 190 -81 81
-111 103 -191 143 -52 26 -122 54 -155 63 -82 22 -273 27 -350 10z m257 -77
c94 -19 213 -84 282 -153 116 -115 169 -241 170 -401 0 -168 -50 -291 -169
-410 -253 -253 -675 -212 -874 85 -135 203 -130 454 14 656 76 106 200 188
330 220 64 16 179 17 247 3z"/>
<path d="M6588 3793 c-10 -2 -18 -11 -18 -19 0 -17 5 -17 31 -4 10 6 45 15 77
19 l57 9 -65 0 c-36 0 -73 -2 -82 -5z"/>
<path d="M6800 3774 c82 -17 201 -75 233 -113 20 -25 29 -28 56 -23 18 4 32
10 32 15 -1 4 -1 11 -1 17 0 23 -171 89 -284 109 -86 16 -113 12 -36 -5z"/>
<path d="M10969 3292 l-136 -3 -49 -260 -49 -261 -30 7 c-169 39 -309 20 -470
-63 -87 -45 -224 -179 -278 -272 -62 -108 -98 -236 -104 -370 -8 -180 24 -287
112 -375 56 -57 120 -86 200 -92 131 -11 255 39 354 142 35 36 64 65 65 65 1
0 -1 -24 -5 -52 -4 -29 -8 -70 -8 -90 l-1 -38 125 0 c93 0 125 3 125 13 0 78
54 397 161 960 71 374 128 682 127 686 -2 3 -64 5 -139 3z m-338 -723 c64 -22
64 -17 24 -225 -19 -104 -43 -211 -51 -239 -52 -161 -173 -278 -289 -278 -120
0 -179 83 -178 248 1 223 135 437 306 491 53 16 144 17 188 3z"/>
<path d="M3012 3219 c-94 -61 -95 -219 -1 -271 48 -27 128 -19 176 18 82 62
85 191 7 253 -37 29 -136 29 -182 0z"/>
<path d="M9570 3221 c-54 -28 -80 -74 -80 -140 0 -126 107 -188 220 -128 50
26 90 90 90 141 -1 48 -34 113 -69 130 -41 22 -118 20 -161 -3z"/>
<path d="M750 3214 c-14 -2 -62 -9 -108 -15 -45 -6 -85 -15 -88 -20 -6 -10
-294 -1521 -294 -1544 0 -13 20 -15 134 -15 l134 0 10 48 c6 26 32 160 58 297
l47 250 151 1 c165 1 248 17 368 71 209 94 342 315 324 540 -14 182 -113 298
-304 360 -67 23 -98 26 -242 29 -91 1 -176 1 -190 -2z m332 -241 c205 -91 149
-409 -90 -505 -48 -19 -76 -23 -174 -23 -64 0 -119 3 -123 6 -5 5 64 401 90
516 6 27 37 32 162 28 62 -2 105 -9 135 -22z"/>
<path d="M5010 3023 c-69 -19 -126 -36 -128 -37 -1 -2 -12 -51 -24 -109 l-21
-107 -77 0 -77 0 -16 -93 c-24 -132 -28 -123 53 -119 64 3 70 2 70 -16 0 -11
-18 -112 -40 -224 -60 -312 -70 -377 -70 -463 1 -159 75 -238 239 -252 56 -5
196 8 207 19 1 2 9 52 17 111 l13 107 -73 0 c-59 0 -77 4 -93 20 -43 43 -42
61 30 433 l52 267 128 0 127 0 17 88 c10 48 19 95 22 105 5 16 -5 17 -122 17
l-127 0 6 43 c4 23 15 88 25 145 18 93 18 102 3 101 -9 0 -72 -16 -141 -36z"/>
<path d="M2000 2785 c-279 -53 -494 -305 -530 -623 -27 -239 62 -428 243 -516
145 -71 366 -58 526 31 83 45 203 166 254 253 62 108 89 205 94 351 5 110 3
136 -16 197 -43 142 -148 252 -280 295 -75 24 -201 29 -291 12z m165 -218 c75
-29 118 -88 136 -186 35 -197 -85 -474 -234 -542 -59 -26 -141 -25 -197 4
-113 57 -149 228 -89 422 30 98 63 160 117 218 79 84 182 117 267 84z"/>
<path d="M4025 2789 c-88 -18 -173 -66 -248 -141 -69 -69 -69 -69 -64 -36 4
18 9 61 13 96 l7 62 -124 0 -124 0 -27 -162 c-15 -90 -61 -341 -102 -558 -42
-217 -76 -403 -76 -413 0 -16 11 -17 138 -15 l137 3 56 295 c30 162 61 313 68
335 41 124 136 251 216 289 85 41 167 26 205 -36 34 -55 26 -138 -45 -516 -36
-189 -65 -350 -65 -358 0 -11 25 -14 134 -14 74 0 137 4 141 9 3 6 35 166 71
358 74 392 87 523 60 615 -19 66 -78 138 -139 167 -51 25 -162 34 -232 20z"/>
<path d="M7731 2788 c-89 -14 -178 -63 -257 -142 l-70 -71 7 60 c5 33 11 77
14 98 l5 37 -125 0 c-69 0 -125 -3 -125 -7 -1 -26 -44 -275 -74 -428 -20 -99
-57 -297 -84 -440 l-49 -260 135 -3 c74 -1 137 0 140 2 2 3 28 135 58 293 30
158 63 315 75 348 64 181 203 308 321 292 89 -12 124 -71 114 -197 -3 -41 -34
-223 -69 -405 l-63 -330 135 -3 c74 -1 138 1 141 5 4 4 38 172 75 373 92 496
92 575 0 696 -53 69 -176 102 -304 82z"/>
<path d="M8780 2789 c-181 -15 -323 -109 -377 -247 -25 -66 -24 -173 3 -232
25 -54 101 -132 164 -167 118 -67 152 -94 172 -139 32 -73 8 -139 -65 -176
-70 -35 -207 -18 -357 46 -12 5 -23 -13 -48 -82 -18 -49 -32 -95 -32 -101 0
-18 96 -58 182 -75 256 -52 498 35 585 211 32 66 43 187 23 249 -28 86 -110
165 -242 236 -32 17 -75 49 -94 71 -33 36 -36 44 -31 85 8 75 80 123 182 121
37 0 148 -26 186 -43 13 -6 22 10 48 84 18 50 30 97 27 105 -6 18 -124 53
-191 57 -27 2 -88 1 -135 -3z"/>
<path d="M11715 2793 c-233 -33 -430 -201 -522 -443 -52 -136 -66 -297 -38
-418 41 -172 147 -277 322 -318 128 -30 350 -4 493 57 43 18 51 26 46 43 -2
12 -7 48 -11 81 -9 86 -14 98 -33 89 -84 -34 -169 -56 -243 -61 -192 -13 -297
58 -315 211 l-7 56 29 1 c16 1 35 1 42 0 38 -6 281 22 349 39 177 45 285 131
318 254 50 184 -58 363 -240 399 -45 9 -156 15 -190 10z m132 -228 c61 -40 63
-138 3 -188 -54 -46 -190 -76 -343 -77 -66 0 -68 1 -61 23 38 125 122 219 226
253 52 17 140 11 175 -11z"/>
<path d="M2787 2208 c-59 -310 -107 -569 -107 -575 0 -10 34 -13 135 -13 99 0
137 3 140 13 6 16 215 1111 215 1126 0 8 -43 11 -138 11 l-138 0 -107 -562z"/>
<path d="M9440 2764 c0 -3 -47 -253 -105 -554 -58 -302 -105 -556 -105 -565 0
-14 17 -15 137 -13 l137 3 102 535 c56 294 105 550 109 568 l6 32 -141 0 c-77
0 -140 -3 -140 -6z"/>
<path d="M7900 1120 l0 -150 30 0 c28 0 30 3 30 34 0 19 4 38 10 41 8 5 43
-40 53 -68 1 -5 19 -7 40 -5 l37 3 -23 35 c-65 96 -63 84 -21 129 l36 41 -39
0 c-36 0 -42 -4 -64 -42 l-24 -43 -3 88 -3 87 -29 0 -30 0 0 -150z"/>
<path d="M9040 1120 l0 -150 30 0 30 0 0 69 c0 76 16 104 48 84 13 -7 18 -28
20 -82 l3 -71 29 0 30 0 0 69 c0 85 -11 117 -46 133 -21 10 -31 9 -55 -4 l-29
-17 0 59 c0 60 0 60 -30 60 l-30 0 0 -150z"/>
<path d="M7336 1188 c-3 -40 -8 -106 -11 -145 l-5 -73 30 0 30 0 1 78 c2 140
11 148 38 34 23 -97 26 -102 50 -102 25 0 28 6 57 108 l31 107 8 -112 7 -113
28 0 29 0 -5 113 c-8 177 -8 177 -53 177 l-39 0 -28 -99 -29 -99 -25 96 -26
97 -41 3 -41 3 -6 -73z"/>
<path d="M8130 1245 c-15 -18 2 -45 30 -45 23 0 34 28 19 46 -15 18 -33 18
-49 -1z"/>
<path d="M8843 1240 c-68 -41 -53 -108 32 -145 55 -25 66 -40 43 -63 -14 -14
-62 -16 -88 -2 -14 8 -19 5 -24 -13 -7 -29 4 -38 56 -44 86 -8 151 55 118 115
-9 15 -34 36 -57 47 -60 29 -69 40 -52 61 10 12 23 15 55 10 36 -5 43 -3 47
15 11 40 -76 52 -130 19z"/>
<path d="M10020 1245 c-15 -18 2 -45 30 -45 23 0 34 28 19 46 -15 18 -33 18
-49 -1z"/>
<path d="M10707 1253 c-4 -3 -7 -69 -7 -145 l0 -138 53 0 c79 0 124 16 142 50
17 33 8 72 -23 91 -19 12 -19 12 -1 30 33 33 23 81 -22 104 -28 15 -130 21
-142 8z m120 -59 c9 -24 -10 -49 -41 -52 -24 -3 -26 0 -26 32 0 33 2 36 30 36
19 0 33 -6 37 -16z m-13 -104 c47 -17 27 -70 -26 -70 -26 0 -28 3 -28 40 0 43
8 48 54 30z"/>
<path d="M11198 1223 c-10 -2 -18 -13 -18 -24 0 -10 -7 -19 -15 -19 -9 0 -15
-9 -15 -25 0 -16 6 -25 15 -25 12 0 15 -13 15 -60 0 -70 21 -100 70 -100 25 0
30 4 30 24 0 15 -7 26 -20 29 -17 4 -20 14 -20 56 0 44 3 51 20 51 15 0 20 7
20 25 0 18 -5 25 -20 25 -15 0 -20 7 -20 25 0 25 -7 27 -42 18z"/>
<path d="M11358 1223 c-10 -2 -18 -13 -18 -24 0 -10 -7 -19 -15 -19 -9 0 -15
-9 -15 -25 0 -16 6 -25 15 -25 12 0 15 -13 15 -60 0 -70 21 -100 70 -100 25 0
30 4 30 24 0 15 -7 26 -20 29 -17 4 -20 14 -20 56 0 44 3 51 20 51 15 0 20 7
20 25 0 18 -5 25 -20 25 -15 0 -20 7 -20 25 0 25 -7 27 -42 18z"/>
<path d="M7703 1170 c-13 -5 -23 -17 -23 -25 0 -13 6 -15 30 -10 31 7 70 -1
70 -14 0 -5 -19 -12 -41 -17 -52 -11 -85 -50 -75 -88 9 -37 48 -53 89 -38 21
8 33 9 35 2 2 -5 15 -10 29 -10 l25 0 -3 85 c-3 61 -9 89 -20 100 -20 20 -86
28 -116 15z m77 -119 c0 -24 -23 -43 -44 -35 -19 7 -21 25 -4 42 19 19 48 15
48 -7z"/>
<path d="M8130 1075 l0 -105 30 0 30 0 0 105 0 105 -30 0 -30 0 0 -105z"/>
<path d="M8240 1075 l0 -105 30 0 29 0 3 71 c2 54 7 75 20 82 32 20 48 -8 48
-84 l0 -69 30 0 30 0 0 73 c0 39 -6 83 -13 97 -18 36 -57 47 -96 27 -26 -13
-31 -13 -31 -1 0 8 -10 14 -25 14 l-25 0 0 -105z"/>
<path d="M8514 1157 c-20 -18 -28 -35 -32 -75 -4 -47 -2 -54 27 -83 31 -31 48
-34 94 -14 11 5 17 3 17 -7 0 -26 -23 -38 -72 -38 -41 0 -48 -3 -48 -20 0 -26
58 -37 111 -21 57 17 69 48 69 176 0 104 0 105 -24 105 -13 0 -26 -5 -28 -11
-3 -9 -9 -9 -25 0 -33 17 -59 13 -89 -12z m100 -43 c17 -44 2 -94 -28 -94 -31
0 -46 19 -46 55 0 17 5 36 12 43 17 17 55 15 62 -4z"/>
<path d="M9318 1165 c-36 -20 -48 -44 -48 -95 0 -30 6 -47 24 -65 69 -69 176
-27 176 69 0 60 -30 96 -85 102 -25 3 -50 -1 -67 -11z m76 -41 c30 -29 12
-114 -24 -114 -19 0 -40 34 -40 65 0 31 21 65 40 65 5 0 16 -7 24 -16z"/>
<path d="M9520 1035 l0 -145 30 0 c29 0 30 1 30 49 l0 49 28 -10 c88 -33 153
103 83 173 -33 32 -53 36 -93 15 -24 -13 -28 -13 -28 0 0 8 -10 14 -25 14
l-25 0 0 -145z m128 83 c7 -7 12 -26 12 -43 0 -36 -15 -55 -46 -55 -24 0 -34
17 -34 59 0 30 16 51 40 51 9 0 21 -5 28 -12z"/>
<path d="M9770 1035 l0 -145 30 0 c29 0 30 1 30 49 l0 49 28 -10 c88 -33 153
103 83 173 -33 32 -53 36 -93 15 -24 -13 -28 -13 -28 0 0 8 -10 14 -25 14
l-25 0 0 -145z m128 83 c7 -7 12 -26 12 -43 0 -36 -15 -55 -46 -55 -24 0 -34
17 -34 59 0 30 16 51 40 51 9 0 21 -5 28 -12z"/>
<path d="M10020 1075 l0 -105 30 0 30 0 0 105 0 105 -30 0 -30 0 0 -105z"/>
<path d="M10130 1075 l0 -105 30 0 29 0 3 71 c2 54 7 75 20 82 32 20 48 -8 48
-84 l0 -69 30 0 30 0 0 73 c0 39 -6 83 -13 97 -18 36 -57 47 -96 27 -26 -13
-31 -13 -31 -1 0 8 -10 14 -25 14 l-25 0 0 -105z"/>
<path d="M10394 1157 c-20 -18 -28 -35 -32 -75 -4 -47 -2 -54 27 -83 31 -31
48 -34 94 -14 11 5 17 3 17 -7 0 -26 -23 -38 -72 -38 -41 0 -48 -3 -48 -20 0
-26 58 -37 111 -21 57 17 69 48 69 176 0 104 0 105 -24 105 -13 0 -26 -5 -28
-11 -3 -9 -9 -9 -25 0 -33 17 -59 13 -89 -12z m100 -43 c17 -44 2 -94 -28 -94
-31 0 -46 19 -46 55 0 17 5 36 12 43 17 17 55 15 62 -4z"/>
<path d="M10993 1170 c-28 -11 -63 -67 -63 -98 0 -43 28 -81 69 -93 53 -16
111 -5 111 21 0 17 -7 20 -49 20 -31 0 -53 5 -61 15 -11 13 -4 15 53 15 36 0
69 4 72 10 8 14 -12 85 -29 99 -20 17 -77 23 -103 11z m65 -42 c24 -24 13 -38
-28 -38 -26 0 -40 5 -40 13 0 18 21 37 40 37 9 0 21 -5 28 -12z"/>
<path d="M11523 1170 c-28 -11 -63 -67 -63 -98 0 -43 28 -81 69 -93 53 -16
111 -5 111 21 0 17 -7 20 -49 20 -31 0 -53 5 -61 15 -11 13 -4 15 53 15 36 0
69 4 72 10 8 14 -12 85 -29 99 -20 17 -77 23 -103 11z m65 -42 c24 -24 13 -38
-28 -38 -26 0 -40 5 -40 13 0 18 21 37 40 37 9 0 21 -5 28 -12z"/>
<path d="M11700 1075 l0 -105 30 0 30 0 0 63 c0 65 11 87 42 87 13 0 18 8 18
30 0 36 -20 40 -50 10 l-20 -20 0 20 c0 15 -7 20 -25 20 l-25 0 0 -105z"/>
</g>
</svg>
